<?xml version="1.0" standalone="no"?>
<!DOCTYPE svg PUBLIC "-//W3C//DTD SVG 20010904//EN"
 "http://www.w3.org/TR/2001/REC-SVG-20010904/DTD/svg10.dtd">
<svg version="1.0" xmlns="http://www.w3.org/2000/svg"
 width="150.000000pt" height="150.000000pt" viewBox="0 0 150.000000 150.000000"
 preserveAspectRatio="xMidYMid meet">
<metadata>
Created by potrace 1.14, written by Peter Selinger 2001-2017
</metadata>
<g transform="translate(0.000000,150.000000) scale(0.100000,-0.100000)"
fill="#000000" stroke="none">
<path d="M788 1048 l-2 -183 -3 173 c-4 229 -22 229 -25 0 l-2 -173 -3 155
c-5 213 -22 220 -25 10 l-2 -165 -3 148 c-5 194 -23 197 -23 2 0 -90 -4 -145
-10 -145 -6 0 -10 52 -10 135 0 83 -4 135 -10 135 -6 0 -11 -54 -12 -137 l-2
-138 -3 123 c-2 70 -8 122 -13 122 -6 0 -11 -52 -12 -122 l-2 -123 -3 113 c-5
145 -23 149 -23 3 l0 -108 -77 -7 c-53 -4 -95 -14 -130 -32 -173 -84 -216
-309 -88 -452 116 -129 313 -130 429 -1 53 59 76 121 76 203 -1 76 -15 56 -23
-31 -12 -145 -126 -249 -272 -247 -77 1 -143 32 -194 91 -119 135 -80 336 83
420 l51 27 313 4 c171 2 312 8 312 13 0 5 -7 9 -15 9 -12 0 -15 19 -15 110 0
146 -18 144 -23 -2 l-3 -113 -2 123 c-3 160 -20 160 -25 0 l-3 -123 -2 138
c-3 181 -20 181 -25 0 l-3 -138 -2 148 c-2 122 -5 147 -17 147 -12 0 -15 -26
-18 -147 l-3 -148 -2 165 c-3 210 -20 203 -25 -10 l-3 -155 -2 173 c-3 229
-21 229 -25 0 l-3 -173 -2 183 c-1 113 -6 182 -12 182 -6 0 -10 -67 -10 -180
0 -153 -2 -180 -15 -180 -13 0 -15 27 -15 180 0 113 -4 180 -10 180 -6 0 -11
-69 -12 -182z"/>
<path d="M415 811 c-50 -22 -99 -70 -128 -125 -30 -57 -30 -165 0 -222 26 -48
92 -110 139 -130 18 -8 62 -14 97 -14 145 0 257 112 257 257 0 63 -16 52 -23
-15 -12 -133 -106 -222 -235 -222 -244 0 -329 319 -117 441 l50 29 322 0 c204
0 324 4 328 10 4 7 -106 10 -322 10 -296 0 -332 -2 -368 -19z"/>
<path d="M419 777 c-82 -44 -139 -154 -122 -239 21 -114 113 -188 231 -188
118 0 222 108 222 231 0 21 -4 41 -10 44 -6 4 -10 -9 -10 -32 0 -158 -149
-265 -288 -208 -133 56 -167 243 -60 342 54 50 74 53 423 53 210 0 325 4 325
10 0 6 -118 10 -333 10 -330 0 -334 0 -378 -23z"/>
<path d="M445 751 c-76 -35 -115 -95 -115 -177 0 -59 19 -103 63 -141 69 -61
162 -69 237 -19 55 36 84 95 85 174 l0 62 113 -1 112 -1 0 -64 c0 -73 13 -104
62 -152 39 -37 82 -52 150 -52 71 0 58 16 -16 22 -114 10 -169 66 -179 186
l-5 62 134 0 c83 0 134 4 134 10 0 14 -725 14 -752 -1 -32 -17 -51 -74 -38
-114 34 -104 190 -76 190 34 0 23 -4 41 -10 41 -5 0 -10 -16 -10 -35 0 -90
-116 -118 -149 -36 -10 24 -10 34 3 59 20 39 30 42 148 42 l101 0 -6 -67 c-8
-84 -38 -132 -102 -163 -115 -55 -245 27 -245 155 0 59 32 118 80 148 34 21
45 22 378 25 207 2 342 7 342 12 0 6 -129 10 -332 10 -303 0 -337 -2 -373 -19z"/>
<path d="M454 721 c-62 -28 -89 -73 -89 -146 0 -75 28 -118 93 -147 98 -44
215 23 222 127 3 48 1 65 -10 65 -5 0 -10 -20 -10 -44 0 -116 -135 -185 -225
-114 -80 63 -68 192 21 238 24 12 91 16 377 18 220 2 346 6 342 12 -4 6 -138
10 -343 10 -307 0 -341 -2 -378 -19z"/>
<path d="M523 701 c-53 -5 -68 -11 -95 -39 -29 -29 -33 -39 -33 -87 0 -46 4
-58 29 -84 85 -89 226 -35 226 85 0 24 -4 44 -10 44 -5 0 -10 -16 -10 -36 0
-102 -107 -152 -182 -85 -28 25 -33 36 -33 74 0 54 30 92 84 107 21 6 179 10
369 10 214 0 332 4 332 10 0 11 -566 12 -677 1z"/>
<path d="M875 617 c-13 -30 3 -115 31 -167 29 -53 72 -92 127 -115 40 -16 158
-29 192 -21 49 12 14 26 -66 26 -162 0 -248 74 -268 232 -5 44 -10 58 -16 45z"/>
<path d="M907 607 c-23 -86 45 -204 140 -244 38 -15 173 -18 173 -3 0 6 -29
10 -67 10 -81 0 -137 23 -177 71 -34 41 -45 68 -55 139 -6 48 -8 52 -14 27z"/>
<path d="M1035 617 c-12 -27 4 -87 30 -113 24 -24 65 -33 65 -14 0 6 -6 10
-14 10 -30 0 -57 35 -65 85 -6 36 -10 45 -16 32z"/>
<path d="M840 577 c0 -112 64 -213 168 -264 48 -24 72 -28 159 -31 63 -3 103
0 103 5 0 6 -46 12 -103 15 -122 7 -176 28 -236 93 -43 46 -71 121 -71 187 0
21 -4 38 -10 38 -5 0 -10 -19 -10 -43z"/>
<path d="M972 567 c3 -35 13 -66 28 -87 26 -37 90 -69 137 -70 53 0 46 17 -9
23 -28 4 -61 13 -75 22 -37 25 -63 75 -63 123 0 24 -5 42 -11 42 -8 0 -10 -18
-7 -53z"/>
<path d="M1000 583 c0 -82 66 -141 148 -134 28 2 -1 21 -32 21 -46 0 -87 45
-93 104 -7 55 -23 61 -23 9z"/>
</g>
</svg>
